<mxfile host="app.diagrams.net" agent="Mozilla/5.0 (X11; Ubuntu; Linux x86_64; rv:130.0) Gecko/20100101 Firefox/130.0" version="24.7.12">
  <diagram name="Page-1" id="AwDRiLQe0dtjwJ4qYS1d">
    <mxGraphModel grid="1" page="1" gridSize="10" guides="1" tooltips="1" connect="1" arrows="1" fold="1" pageScale="1" pageWidth="850" pageHeight="1100" math="0" shadow="0">
      <root>
        <mxCell id="0" />
        <mxCell id="1" parent="0" />
        <mxCell id="LWwqwtdcacfsK2-XOBvw-12" value="" style="group;verticalAlign=top;" connectable="0" vertex="1" parent="1">
          <mxGeometry x="160" y="340" width="480" height="320" as="geometry" />
        </mxCell>
        <mxCell id="LWwqwtdcacfsK2-XOBvw-1" value="" style="rounded=0;whiteSpace=wrap;html=1;strokeWidth=2;" vertex="1" parent="LWwqwtdcacfsK2-XOBvw-12">
          <mxGeometry y="60" width="480" height="80" as="geometry" />
        </mxCell>
        <mxCell id="LWwqwtdcacfsK2-XOBvw-4" style="edgeStyle=orthogonalEdgeStyle;rounded=0;orthogonalLoop=1;jettySize=auto;html=1;entryX=1;entryY=0.5;entryDx=0;entryDy=0;strokeWidth=2;endArrow=none;endFill=0;" edge="1" parent="LWwqwtdcacfsK2-XOBvw-12" source="LWwqwtdcacfsK2-XOBvw-6" target="LWwqwtdcacfsK2-XOBvw-2">
          <mxGeometry relative="1" as="geometry" />
        </mxCell>
        <mxCell id="LWwqwtdcacfsK2-XOBvw-5" style="edgeStyle=orthogonalEdgeStyle;rounded=0;orthogonalLoop=1;jettySize=auto;html=1;strokeWidth=2;" edge="1" parent="LWwqwtdcacfsK2-XOBvw-12" source="LWwqwtdcacfsK2-XOBvw-6" target="LWwqwtdcacfsK2-XOBvw-3">
          <mxGeometry relative="1" as="geometry" />
        </mxCell>
        <mxCell id="LWwqwtdcacfsK2-XOBvw-6" value="&lt;b&gt;Tener&lt;/b&gt;" style="shape=rhombus;perimeter=rhombusPerimeter;whiteSpace=wrap;html=1;align=center;strokeWidth=2;fontSize=18;" vertex="1" parent="LWwqwtdcacfsK2-XOBvw-12">
          <mxGeometry x="180" y="70" width="120" height="60" as="geometry" />
        </mxCell>
        <mxCell id="LWwqwtdcacfsK2-XOBvw-11" value="" style="group" connectable="0" vertex="1" parent="LWwqwtdcacfsK2-XOBvw-12">
          <mxGeometry x="20" y="80" width="440" height="40" as="geometry" />
        </mxCell>
        <mxCell id="LWwqwtdcacfsK2-XOBvw-2" value="Materia" style="whiteSpace=wrap;html=1;align=center;strokeWidth=2;fontStyle=1;fontSize=18;" vertex="1" parent="LWwqwtdcacfsK2-XOBvw-11">
          <mxGeometry width="100" height="40" as="geometry" />
        </mxCell>
        <mxCell id="LWwqwtdcacfsK2-XOBvw-3" value="Profesor" style="whiteSpace=wrap;html=1;align=center;strokeWidth=2;fontStyle=1;fontSize=18;" vertex="1" parent="LWwqwtdcacfsK2-XOBvw-11">
          <mxGeometry x="340" width="100" height="40" as="geometry" />
        </mxCell>
        <mxCell id="LWwqwtdcacfsK2-XOBvw-28" value="" style="edgeStyle=orthogonalEdgeStyle;rounded=0;orthogonalLoop=1;jettySize=auto;html=1;strokeWidth=2;endArrow=none;endFill=0;shape=link;" edge="1" parent="LWwqwtdcacfsK2-XOBvw-12" source="LWwqwtdcacfsK2-XOBvw-10" target="LWwqwtdcacfsK2-XOBvw-7">
          <mxGeometry relative="1" as="geometry" />
        </mxCell>
        <mxCell id="LWwqwtdcacfsK2-XOBvw-10" value="&lt;b&gt;Tomar&lt;/b&gt;" style="shape=rhombus;perimeter=rhombusPerimeter;whiteSpace=wrap;html=1;align=center;strokeWidth=2;fontSize=18;" vertex="1" parent="LWwqwtdcacfsK2-XOBvw-12">
          <mxGeometry x="180" y="180" width="120" height="60" as="geometry" />
        </mxCell>
        <mxCell id="LWwqwtdcacfsK2-XOBvw-7" value="Alumno" style="whiteSpace=wrap;html=1;align=center;strokeWidth=2;fontStyle=1;fontSize=18;" vertex="1" parent="LWwqwtdcacfsK2-XOBvw-12">
          <mxGeometry x="190" y="280" width="100" height="40" as="geometry" />
        </mxCell>
        <mxCell id="_pmt4gVbGoPn4QqWRVYe-14" value="" style="edgeStyle=orthogonalEdgeStyle;rounded=0;orthogonalLoop=1;jettySize=auto;html=1;shape=link;strokeWidth=2;" edge="1" parent="LWwqwtdcacfsK2-XOBvw-12" source="_pmt4gVbGoPn4QqWRVYe-5" target="LWwqwtdcacfsK2-XOBvw-10">
          <mxGeometry relative="1" as="geometry" />
        </mxCell>
        <mxCell id="_pmt4gVbGoPn4QqWRVYe-5" value="" style="triangle;whiteSpace=wrap;html=1;rotation=-90;strokeWidth=2;fillColor=#000000;" vertex="1" parent="LWwqwtdcacfsK2-XOBvw-12">
          <mxGeometry x="236" y="140" width="8" height="8" as="geometry" />
        </mxCell>
        <mxCell id="LWwqwtdcacfsK2-XOBvw-31" value="" style="rounded=0;whiteSpace=wrap;html=1;strokeWidth=2;" vertex="1" parent="1">
          <mxGeometry x="160" y="80" width="480" height="80" as="geometry" />
        </mxCell>
        <mxCell id="LWwqwtdcacfsK2-XOBvw-32" style="edgeStyle=orthogonalEdgeStyle;rounded=0;orthogonalLoop=1;jettySize=auto;html=1;entryX=1;entryY=0.5;entryDx=0;entryDy=0;strokeWidth=2;endArrow=none;endFill=0;" edge="1" parent="1" source="LWwqwtdcacfsK2-XOBvw-34" target="LWwqwtdcacfsK2-XOBvw-36">
          <mxGeometry relative="1" as="geometry" />
        </mxCell>
        <mxCell id="LWwqwtdcacfsK2-XOBvw-33" style="edgeStyle=orthogonalEdgeStyle;rounded=0;orthogonalLoop=1;jettySize=auto;html=1;strokeWidth=2;endArrow=none;endFill=0;" edge="1" parent="1" source="LWwqwtdcacfsK2-XOBvw-34" target="LWwqwtdcacfsK2-XOBvw-37">
          <mxGeometry relative="1" as="geometry" />
        </mxCell>
        <mxCell id="LWwqwtdcacfsK2-XOBvw-34" value="&lt;b&gt;Tener&lt;/b&gt;" style="shape=rhombus;perimeter=rhombusPerimeter;whiteSpace=wrap;html=1;align=center;strokeWidth=2;fontSize=18;" vertex="1" parent="1">
          <mxGeometry x="340" y="90" width="120" height="60" as="geometry" />
        </mxCell>
        <mxCell id="LWwqwtdcacfsK2-XOBvw-35" value="" style="group" connectable="0" vertex="1" parent="1">
          <mxGeometry x="180" y="100" width="440" height="40" as="geometry" />
        </mxCell>
        <mxCell id="LWwqwtdcacfsK2-XOBvw-36" value="Alumno" style="whiteSpace=wrap;html=1;align=center;strokeWidth=2;fontStyle=1;fontSize=18;" vertex="1" parent="LWwqwtdcacfsK2-XOBvw-35">
          <mxGeometry width="100" height="40" as="geometry" />
        </mxCell>
        <mxCell id="LWwqwtdcacfsK2-XOBvw-37" value="Profesor" style="whiteSpace=wrap;html=1;align=center;strokeWidth=2;fontStyle=1;fontSize=18;" vertex="1" parent="LWwqwtdcacfsK2-XOBvw-35">
          <mxGeometry x="340" width="100" height="40" as="geometry" />
        </mxCell>
        <mxCell id="LWwqwtdcacfsK2-XOBvw-38" value="" style="edgeStyle=orthogonalEdgeStyle;rounded=0;orthogonalLoop=1;jettySize=auto;html=1;strokeWidth=2;endArrow=none;endFill=0;" edge="1" parent="1" source="LWwqwtdcacfsK2-XOBvw-39" target="LWwqwtdcacfsK2-XOBvw-40">
          <mxGeometry relative="1" as="geometry" />
        </mxCell>
        <mxCell id="LWwqwtdcacfsK2-XOBvw-39" value="&lt;b&gt;Cursar&lt;/b&gt;" style="shape=rhombus;perimeter=rhombusPerimeter;whiteSpace=wrap;html=1;align=center;strokeWidth=2;fontSize=18;" vertex="1" parent="1">
          <mxGeometry x="340" y="200" width="120" height="60" as="geometry" />
        </mxCell>
        <mxCell id="LWwqwtdcacfsK2-XOBvw-40" value="Materia" style="whiteSpace=wrap;html=1;align=center;strokeWidth=2;fontStyle=1;fontSize=18;" vertex="1" parent="1">
          <mxGeometry x="350" y="300" width="100" height="40" as="geometry" />
        </mxCell>
        <mxCell id="LWwqwtdcacfsK2-XOBvw-41" value="" style="edgeStyle=orthogonalEdgeStyle;rounded=0;orthogonalLoop=1;jettySize=auto;html=1;startArrow=none;startFill=0;endArrow=none;endFill=0;strokeWidth=2;" edge="1" parent="1" source="LWwqwtdcacfsK2-XOBvw-31" target="LWwqwtdcacfsK2-XOBvw-39">
          <mxGeometry relative="1" as="geometry" />
        </mxCell>
      </root>
    </mxGraphModel>
  </diagram>
</mxfile>
